<svg width="282" height="279" viewBox="0 0 282 279" fill="none" xmlns="http://www.w3.org/2000/svg">
<path d="M80.9832 234C86.8843 234 92.5437 236.344 96.7163 240.517C100.889 244.69 103.233 250.349 103.233 256.25C103.233 262.151 100.889 267.81 96.7163 271.983C92.5437 276.156 86.8843 278.5 80.9832 278.5C75.0821 278.5 69.4228 276.156 65.2501 271.983C61.0774 267.81 58.7332 262.151 58.7332 256.25C58.7332 250.349 61.0774 244.69 65.2501 240.517C69.4228 236.344 75.0821 234 80.9832 234ZM214.483 234C220.384 234 226.044 236.344 230.216 240.517C234.389 244.69 236.733 250.349 236.733 256.25C236.733 262.151 234.389 267.81 230.216 271.983C226.044 276.156 220.384 278.5 214.483 278.5C208.582 278.5 202.923 276.156 198.75 271.983C194.577 267.81 192.233 262.151 192.233 256.25C192.233 250.349 194.577 244.69 198.75 240.517C202.923 236.344 208.582 234 214.483 234Z" fill="#0057FF"/>
<path d="M0.645853 7.8065C1.62389 5.02348 3.66719 2.74282 6.32644 1.46605C8.98569 0.189273 12.0432 0.0209187 14.8265 0.998004L19.2914 2.57034C28.4435 5.78917 36.2014 8.5185 42.3275 11.5148C48.8542 14.7337 54.4612 18.6793 58.6738 24.85C62.8568 30.9613 64.5923 37.6808 65.3785 45.053C65.7345 48.346 65.9273 51.995 66.0312 56H223.828C248.822 56 271.325 56 277.911 64.5588C284.497 73.1177 281.916 86.0227 276.768 111.818L269.352 147.789C264.679 170.454 262.35 181.801 254.162 188.462C245.974 195.137 234.404 195.137 211.25 195.137H132.588C91.2033 195.137 70.5257 195.137 57.68 181.579C44.8344 168.021 43.885 153.633 43.885 109.993V71.397C43.885 60.4203 43.885 53.0778 43.262 47.4412C42.6687 42.0567 41.6452 39.357 40.2953 37.399C39.0049 35.4855 37.032 33.6907 32.5227 31.4953C27.7315 29.1517 21.2197 26.8377 11.311 23.3518L7.45435 22.002C6.07329 21.5193 4.80099 20.7689 3.71031 19.7939C2.61962 18.8188 1.73197 17.6382 1.09817 16.3196C0.464374 15.001 0.0968743 13.5704 0.0167131 12.1096C-0.0634481 10.6488 0.145303 9.18651 0.631018 7.8065" fill="#0057FF"/>
<path d="M182.997 147.592C182.955 147.635 182.933 147.699 182.933 147.784C182.933 147.827 182.912 147.869 182.869 147.912C182.784 148.083 182.741 148.168 182.741 148.168C182.699 148.339 182.635 148.445 182.549 148.488C182.464 148.531 182.379 148.595 182.293 148.68L182.037 148.872C181.909 149.427 181.803 149.96 181.717 150.472C181.675 151.027 181.611 151.581 181.525 152.136C181.483 152.349 181.44 152.669 181.397 153.096C181.397 153.523 181.355 153.629 181.269 153.416C181.141 152.861 181.077 152.307 181.077 151.752C181.12 151.197 181.099 150.643 181.013 150.088C181.013 150.045 180.971 150.045 180.885 150.088C180.843 150.173 180.8 150.216 180.757 150.216C180.672 150.259 180.565 150.323 180.437 150.408C180.309 150.493 180.16 150.515 179.989 150.472C179.947 150.472 179.883 150.429 179.797 150.344C179.456 150.344 179.093 150.195 178.709 149.896C178.667 150.024 178.645 150.173 178.645 150.344C178.688 150.557 178.645 150.707 178.517 150.792C178.389 150.877 178.325 150.813 178.325 150.6C178.325 150.387 178.304 150.216 178.261 150.088C178.261 150.088 178.24 149.896 178.197 149.512C178.197 149.171 178.005 149.085 177.621 149.256C177.579 149.299 177.515 149.363 177.429 149.448C177.387 149.533 177.301 149.64 177.173 149.768C177.045 149.939 176.896 150.088 176.725 150.216C176.683 150.259 176.619 150.323 176.533 150.408C176.491 150.536 176.427 150.643 176.341 150.728C176.213 150.813 176.085 150.792 175.957 150.664C175.872 150.579 175.787 150.515 175.701 150.472C175.659 150.472 175.552 150.493 175.381 150.536C175.253 150.621 175.189 150.685 175.189 150.728C175.189 150.728 175.168 150.728 175.125 150.728C175.125 150.728 175.125 150.749 175.125 150.792C175.125 150.792 175.083 150.835 174.997 150.92C174.741 151.219 174.549 151.56 174.421 151.944C174.293 152.371 174.144 152.755 173.973 153.096C173.888 153.267 173.781 153.459 173.653 153.672C173.568 153.928 173.419 154.12 173.205 154.248C173.163 154.803 173.12 155.357 173.077 155.912C173.077 156.467 173.035 157.021 172.949 157.576C172.907 157.704 172.864 157.896 172.821 158.152C172.821 158.408 172.779 158.472 172.693 158.344C172.565 158.088 172.501 157.811 172.501 157.512C172.501 157.256 172.48 156.979 172.437 156.68C172.395 156.211 172.373 155.763 172.373 155.336C172.373 154.909 172.331 154.483 172.245 154.056C171.989 153.843 171.797 153.651 171.669 153.48C171.499 153.224 171.307 152.947 171.093 152.648C170.923 152.349 170.731 152.051 170.517 151.752C170.347 151.453 170.176 151.176 170.005 150.92C169.877 150.664 169.728 150.408 169.557 150.152C169.515 150.067 169.451 149.981 169.365 149.896L169.173 149.576H169.109C169.067 149.576 169.003 149.469 168.917 149.256C168.875 149.085 168.811 148.936 168.725 148.808C168.939 149.021 169.003 149.085 168.917 149C168.875 148.915 168.768 148.787 168.597 148.616C168.469 148.445 168.384 148.36 168.341 148.36L168.277 148.296L168.085 147.976C168.085 147.933 168.064 147.912 168.021 147.912C168.021 147.869 168.021 147.827 168.021 147.784C167.893 147.443 167.851 147.059 167.893 146.632C167.936 146.163 167.957 145.757 167.957 145.416V130.248C167.957 130.973 167.979 131.315 168.021 131.272C168.064 131.229 168.107 131.037 168.149 130.696C168.192 130.355 168.192 130.077 168.149 129.864C168.107 129.608 168 129.651 167.829 129.992L167.573 130.376C167.488 130.461 167.445 130.525 167.445 130.568C167.488 130.568 167.467 130.611 167.381 130.696C167.381 130.696 167.36 130.717 167.317 130.76C167.317 130.76 167.317 130.781 167.317 130.824C167.104 131.123 166.891 131.443 166.677 131.784C166.507 132.125 166.315 132.467 166.101 132.808C165.76 133.363 165.419 133.939 165.077 134.536C164.736 135.133 164.373 135.709 163.989 136.264C163.947 136.392 163.883 136.52 163.797 136.648C163.712 136.776 163.627 136.883 163.541 136.968C163.413 137.139 163.264 137.309 163.093 137.48C162.965 137.651 162.795 137.779 162.581 137.864C162.539 137.907 162.475 137.971 162.389 138.056C162.347 138.141 162.261 138.291 162.133 138.504C162.091 138.547 162.027 138.568 161.941 138.568C161.899 139.037 161.856 139.763 161.813 140.744C161.813 141.683 161.792 142.707 161.749 143.816C161.749 144.925 161.728 145.971 161.685 146.952C161.685 147.891 161.664 148.595 161.621 149.064C161.621 149.107 161.579 149.128 161.493 149.128C161.408 149.128 161.365 149.107 161.365 149.064C161.323 148.467 161.28 147.528 161.237 146.248C161.237 144.968 161.237 143.667 161.237 142.344C161.237 141.021 161.195 139.976 161.109 139.208C161.109 139.208 161.045 139.144 160.917 139.016L160.853 139.08C160.853 139.08 160.853 139.101 160.853 139.144C160.853 139.144 160.832 139.144 160.789 139.144C160.789 139.229 160.747 139.315 160.661 139.4C160.576 139.571 160.469 139.741 160.341 139.912C160.213 140.04 160.064 140.147 159.893 140.232C159.808 140.445 159.787 140.723 159.829 141.064C159.872 141.405 159.787 141.555 159.573 141.512C159.36 141.427 159.296 141.235 159.381 140.936C159.467 140.595 159.467 140.296 159.381 140.04C159.296 139.955 159.211 139.848 159.125 139.72C159.04 139.592 158.955 139.507 158.869 139.464C158.741 139.336 158.677 139.272 158.677 139.272C158.635 139.443 158.571 139.613 158.485 139.784C158.443 139.955 158.4 140.083 158.357 140.168C158.357 139.955 158.293 139.699 158.165 139.4C158.08 139.485 158.037 139.549 158.037 139.592C158.037 139.592 157.995 139.635 157.909 139.72C157.824 139.848 157.739 139.997 157.653 140.168C157.568 140.339 157.483 140.488 157.397 140.616C157.355 140.659 157.269 140.744 157.141 140.872C157.056 140.957 156.971 140.979 156.885 140.936C156.8 140.893 156.736 140.851 156.693 140.808C156.651 140.723 156.587 140.659 156.501 140.616C156.288 140.403 156.139 140.083 156.053 139.656C155.968 139.357 155.883 139.08 155.797 138.824C155.755 138.525 155.691 138.227 155.605 137.928C155.435 137.843 155.285 137.736 155.157 137.608C155.072 137.437 154.965 137.288 154.837 137.16L154.517 136.648C154.176 136.093 153.835 135.539 153.493 134.984C153.152 134.387 152.811 133.811 152.469 133.256L151.893 132.296C151.765 132.125 151.637 131.955 151.509 131.784C151.424 131.613 151.317 131.443 151.189 131.272L150.997 130.888C150.955 130.803 150.912 130.717 150.869 130.632C150.827 130.547 150.763 130.461 150.677 130.376C150.677 130.333 150.656 130.312 150.613 130.312C150.613 130.312 150.613 130.291 150.613 130.248C150.613 130.248 150.571 130.205 150.485 130.12C150.485 129.907 150.443 129.757 150.357 129.672C150.315 129.544 150.293 129.651 150.293 129.992V146.248C150.293 146.461 150.293 146.696 150.293 146.952C150.336 147.165 150.336 147.379 150.293 147.592C150.293 147.507 150.272 147.549 150.229 147.72C150.187 147.848 150.187 147.891 150.229 147.848C150.187 148.019 150.08 148.189 149.909 148.36L149.525 148.744C149.483 148.915 149.44 149.085 149.397 149.256C149.397 149.469 149.355 149.683 149.269 149.896C149.184 150.451 149.077 150.984 148.949 151.496C148.864 152.051 148.736 152.605 148.565 153.16C148.523 153.288 148.459 153.501 148.373 153.8C148.288 154.099 148.203 154.312 148.117 154.44C147.861 154.696 147.669 154.611 147.541 154.184C147.413 153.8 147.328 153.587 147.285 153.544C147.2 153.203 147.115 152.84 147.029 152.456C146.944 152.115 146.859 151.752 146.773 151.368C146.731 151.155 146.709 150.941 146.709 150.728C146.709 150.515 146.667 150.323 146.581 150.152C146.496 150.237 146.389 150.323 146.261 150.408C146.133 150.536 146.005 150.643 145.877 150.728C145.792 151.539 145.728 152.371 145.685 153.224C145.685 154.12 145.643 154.995 145.557 155.848C145.557 155.891 145.515 155.869 145.429 155.784C145.344 155.699 145.301 155.635 145.301 155.592C144.917 154.952 144.789 154.355 144.917 153.8C145.045 153.288 145.173 152.755 145.301 152.2C145.472 151.645 145.365 151.069 144.981 150.472C144.939 150.387 144.896 150.301 144.853 150.216C144.811 150.131 144.747 150.045 144.661 149.96C144.576 149.96 144.533 149.96 144.533 149.96C144.448 150.643 144.405 151.304 144.405 151.944C144.405 152.627 144.363 153.288 144.277 153.928C144.277 153.928 144.192 153.928 144.021 153.928C143.851 153.928 143.765 153.907 143.765 153.864C143.723 153.224 143.68 152.563 143.637 151.88C143.637 151.24 143.595 150.579 143.509 149.896H143.189L143.125 149.832C143.04 149.832 142.997 149.832 142.997 149.832C142.955 150.387 142.933 150.92 142.933 151.432C142.933 151.987 142.891 152.541 142.805 153.096C142.805 153.139 142.72 153.075 142.549 152.904C142.379 152.819 142.293 152.755 142.293 152.712C142.208 152.243 142.165 151.795 142.165 151.368C142.165 150.941 142.144 150.515 142.101 150.088C142.059 150.131 142.016 150.195 141.973 150.28C141.931 150.365 141.931 150.365 141.973 150.28C141.931 150.408 141.845 150.536 141.717 150.664C141.675 150.707 141.611 150.749 141.525 150.792C141.44 150.877 141.355 150.963 141.269 151.048C141.141 151.304 141.056 151.56 141.013 151.816C140.971 152.115 140.885 152.413 140.757 152.712C140.715 152.755 140.672 152.819 140.629 152.904C140.629 152.989 140.587 153.075 140.501 153.16C140.416 153.245 140.331 153.245 140.245 153.16C140.075 152.989 139.968 152.691 139.925 152.264C139.883 151.837 139.819 151.56 139.733 151.432C139.52 151.219 139.328 150.941 139.157 150.6C139.029 150.301 138.859 149.939 138.645 149.512C138.603 149.597 138.581 149.661 138.581 149.704C138.581 149.789 138.56 149.875 138.517 149.96C138.475 150.003 138.368 149.981 138.197 149.896C138.069 149.853 138.005 149.832 138.005 149.832C137.835 149.747 137.707 149.661 137.621 149.576C137.664 149.661 137.685 149.811 137.685 150.024C137.685 150.237 137.6 150.579 137.429 151.048C137.387 151.219 137.344 151.368 137.301 151.496C137.259 151.624 137.216 151.773 137.173 151.944C137.131 152.413 137.109 153.139 137.109 154.12C137.109 155.144 137.109 156.211 137.109 157.32C137.109 158.472 137.109 159.539 137.109 160.52C137.109 161.544 137.067 162.291 136.981 162.76C136.939 163.187 136.896 163.251 136.853 162.952C136.853 162.653 136.853 162.141 136.853 161.416C136.853 160.691 136.853 159.944 136.853 159.176C136.853 158.408 136.853 157.811 136.853 157.384C136.811 156.104 136.789 155.037 136.789 154.184C136.789 153.373 136.768 152.563 136.725 151.752C136.683 150.984 136.576 150.045 136.405 148.936C136.235 148.851 136.085 148.765 135.957 148.68C135.488 148.339 135.253 147.869 135.253 147.272V105.928C135.253 105.459 135.424 105.053 135.765 104.712C136.107 104.371 136.576 104.2 137.173 104.2H145.813C146.283 104.2 146.731 104.2 147.157 104.2C147.584 104.157 147.989 104.243 148.373 104.456C148.843 104.669 149.205 104.968 149.461 105.352C149.76 105.736 150.016 106.141 150.229 106.568C150.315 106.653 150.379 106.76 150.421 106.888C150.507 106.973 150.571 107.08 150.613 107.208L150.933 107.72C151.317 108.189 151.68 108.744 152.021 109.384C152.405 109.981 152.768 110.621 153.109 111.304L155.349 115.016C155.861 115.784 156.352 116.573 156.821 117.384C157.291 118.195 157.76 118.984 158.229 119.752C158.315 119.923 158.421 120.115 158.549 120.328C158.677 120.499 158.784 120.691 158.869 120.904L159.125 121.288L159.381 120.84C159.467 120.627 159.573 120.435 159.701 120.264C159.829 120.093 159.936 119.923 160.021 119.752C160.405 119.155 160.789 118.536 161.173 117.896C161.557 117.256 161.941 116.616 162.325 115.976L162.773 115.208C162.773 115.165 162.773 115.144 162.773 115.144C162.816 115.144 162.837 115.123 162.837 115.08C162.837 115.08 162.88 115.037 162.965 114.952L165.141 111.304C165.184 111.304 165.205 111.304 165.205 111.304C165.205 111.261 165.205 111.24 165.205 111.24C165.547 110.6 165.888 109.981 166.229 109.384C166.613 108.787 166.955 108.253 167.253 107.784L167.637 107.144C167.851 106.803 168.043 106.483 168.213 106.184C168.427 105.843 168.661 105.523 168.917 105.224C168.917 105.181 168.939 105.16 168.981 105.16C169.195 104.861 169.493 104.627 169.877 104.456C170.261 104.243 170.667 104.157 171.093 104.2C171.563 104.2 172.011 104.2 172.437 104.2H181.269C181.525 104.2 181.717 104.243 181.845 104.328C181.973 104.371 182.123 104.435 182.293 104.52C182.677 104.776 182.912 105.203 182.997 105.8C183.04 106.099 183.04 106.419 182.997 106.76C182.997 107.101 182.997 107.421 182.997 107.72V144.456C182.997 144.968 183.019 145.501 183.061 146.056C183.104 146.568 183.083 147.08 182.997 147.592Z" fill="white"/>
</svg>
