<svg width="282" height="279" viewBox="0 0 282 279" fill="none" xmlns="http://www.w3.org/2000/svg">
<path d="M80.9832 233.63C86.8843 233.63 92.5437 235.974 96.7163 240.147C100.889 244.319 103.233 249.979 103.233 255.88C103.233 261.781 100.889 267.44 96.7163 271.613C92.5437 275.786 86.8843 278.13 80.9832 278.13C75.0821 278.13 69.4228 275.786 65.2501 271.613C61.0774 267.44 58.7332 261.781 58.7332 255.88C58.7332 249.979 61.0774 244.319 65.2501 240.147C69.4228 235.974 75.0821 233.63 80.9832 233.63ZM214.483 233.63C220.384 233.63 226.044 235.974 230.216 240.147C234.389 244.319 236.733 249.979 236.733 255.88C236.733 261.781 234.389 267.44 230.216 271.613C226.044 275.786 220.384 278.13 214.483 278.13C208.582 278.13 202.923 275.786 198.75 271.613C194.577 267.44 192.233 261.781 192.233 255.88C192.233 249.979 194.577 244.319 198.75 240.147C202.923 235.974 208.582 233.63 214.483 233.63Z" fill="white"/>
<path d="M0.645853 7.43651C1.62389 4.65348 3.66719 2.37283 6.32644 1.09605C8.98569 -0.180722 12.0432 -0.349076 14.8265 0.628009L19.2914 2.20034C28.4435 5.41917 36.2014 8.14851 42.3275 11.1448C48.8542 14.3637 54.4612 18.3093 58.6738 24.48C62.8568 30.5913 64.5923 37.3108 65.3785 44.683C65.7345 47.976 65.9273 51.625 66.0312 55.63H223.828C248.822 55.63 271.325 55.63 277.911 64.1888C284.497 72.7477 281.916 85.6527 276.768 111.448L269.352 147.419C264.679 170.084 262.35 181.432 254.162 188.092C245.974 194.767 234.404 194.767 211.25 194.767H132.588C91.2033 194.767 70.5257 194.767 57.68 181.209C44.8344 167.651 43.885 153.263 43.885 109.623V71.027C43.885 60.0503 43.885 52.7078 43.262 47.0712C42.6687 41.6867 41.6452 38.987 40.2953 37.029C39.0049 35.1155 37.032 33.3207 32.5227 31.1253C27.7315 28.7817 21.2197 26.4677 11.311 22.9818L7.45435 21.632C6.07329 21.1493 4.80099 20.3989 3.71031 19.4239C2.61962 18.4488 1.73197 17.2682 1.09817 15.9496C0.464374 14.631 0.0968743 13.2004 0.0167131 11.7396C-0.0634481 10.2788 0.145303 8.81652 0.631018 7.43651" fill="white"/>
<path d="M182.997 147.222C182.955 147.265 182.933 147.329 182.933 147.414C182.933 147.457 182.912 147.499 182.869 147.542C182.784 147.713 182.741 147.798 182.741 147.798C182.699 147.969 182.635 148.075 182.549 148.118C182.464 148.161 182.379 148.225 182.293 148.31L182.037 148.502C181.909 149.057 181.803 149.59 181.717 150.102C181.675 150.657 181.611 151.211 181.525 151.766C181.483 151.979 181.44 152.299 181.397 152.726C181.397 153.153 181.355 153.259 181.269 153.046C181.141 152.491 181.077 151.937 181.077 151.382C181.12 150.827 181.099 150.273 181.013 149.718C181.013 149.675 180.971 149.675 180.885 149.718C180.843 149.803 180.8 149.846 180.757 149.846C180.672 149.889 180.565 149.953 180.437 150.038C180.309 150.123 180.16 150.145 179.989 150.102C179.947 150.102 179.883 150.059 179.797 149.974C179.456 149.974 179.093 149.825 178.709 149.526C178.667 149.654 178.645 149.803 178.645 149.974C178.688 150.187 178.645 150.337 178.517 150.422C178.389 150.507 178.325 150.443 178.325 150.23C178.325 150.017 178.304 149.846 178.261 149.718C178.261 149.718 178.24 149.526 178.197 149.142C178.197 148.801 178.005 148.715 177.621 148.886C177.579 148.929 177.515 148.993 177.429 149.078C177.387 149.163 177.301 149.27 177.173 149.398C177.045 149.569 176.896 149.718 176.725 149.846C176.683 149.889 176.619 149.953 176.533 150.038C176.491 150.166 176.427 150.273 176.341 150.358C176.213 150.443 176.085 150.422 175.957 150.294C175.872 150.209 175.787 150.145 175.701 150.102C175.659 150.102 175.552 150.123 175.381 150.166C175.253 150.251 175.189 150.315 175.189 150.358C175.189 150.358 175.168 150.358 175.125 150.358C175.125 150.358 175.125 150.379 175.125 150.422C175.125 150.422 175.083 150.465 174.997 150.55C174.741 150.849 174.549 151.19 174.421 151.574C174.293 152.001 174.144 152.385 173.973 152.726C173.888 152.897 173.781 153.089 173.653 153.302C173.568 153.558 173.419 153.75 173.205 153.878C173.163 154.433 173.12 154.987 173.077 155.542C173.077 156.097 173.035 156.651 172.949 157.206C172.907 157.334 172.864 157.526 172.821 157.782C172.821 158.038 172.779 158.102 172.693 157.974C172.565 157.718 172.501 157.441 172.501 157.142C172.501 156.886 172.48 156.609 172.437 156.31C172.395 155.841 172.373 155.393 172.373 154.966C172.373 154.539 172.331 154.113 172.245 153.686C171.989 153.473 171.797 153.281 171.669 153.11C171.499 152.854 171.307 152.577 171.093 152.278C170.923 151.979 170.731 151.681 170.517 151.382C170.347 151.083 170.176 150.806 170.005 150.55C169.877 150.294 169.728 150.038 169.557 149.782C169.515 149.697 169.451 149.611 169.365 149.526L169.173 149.206H169.109C169.067 149.206 169.003 149.099 168.917 148.886C168.875 148.715 168.811 148.566 168.725 148.438C168.939 148.651 169.003 148.715 168.917 148.63C168.875 148.545 168.768 148.417 168.597 148.246C168.469 148.075 168.384 147.99 168.341 147.99L168.277 147.926L168.085 147.606C168.085 147.563 168.064 147.542 168.021 147.542C168.021 147.499 168.021 147.457 168.021 147.414C167.893 147.073 167.851 146.689 167.893 146.262C167.936 145.793 167.957 145.387 167.957 145.046V129.878C167.957 130.603 167.979 130.945 168.021 130.902C168.064 130.859 168.107 130.667 168.149 130.326C168.192 129.985 168.192 129.707 168.149 129.494C168.107 129.238 168 129.281 167.829 129.622L167.573 130.006C167.488 130.091 167.445 130.155 167.445 130.198C167.488 130.198 167.467 130.241 167.381 130.326C167.381 130.326 167.36 130.347 167.317 130.39C167.317 130.39 167.317 130.411 167.317 130.454C167.104 130.753 166.891 131.073 166.677 131.414C166.507 131.755 166.315 132.097 166.101 132.438C165.76 132.993 165.419 133.569 165.077 134.166C164.736 134.763 164.373 135.339 163.989 135.894C163.947 136.022 163.883 136.15 163.797 136.278C163.712 136.406 163.627 136.513 163.541 136.598C163.413 136.769 163.264 136.939 163.093 137.11C162.965 137.281 162.795 137.409 162.581 137.494C162.539 137.537 162.475 137.601 162.389 137.686C162.347 137.771 162.261 137.921 162.133 138.134C162.091 138.177 162.027 138.198 161.941 138.198C161.899 138.667 161.856 139.393 161.813 140.374C161.813 141.313 161.792 142.337 161.749 143.446C161.749 144.555 161.728 145.601 161.685 146.582C161.685 147.521 161.664 148.225 161.621 148.694C161.621 148.737 161.579 148.758 161.493 148.758C161.408 148.758 161.365 148.737 161.365 148.694C161.323 148.097 161.28 147.158 161.237 145.878C161.237 144.598 161.237 143.297 161.237 141.974C161.237 140.651 161.195 139.606 161.109 138.838C161.109 138.838 161.045 138.774 160.917 138.646L160.853 138.71C160.853 138.71 160.853 138.731 160.853 138.774C160.853 138.774 160.832 138.774 160.789 138.774C160.789 138.859 160.747 138.945 160.661 139.03C160.576 139.201 160.469 139.371 160.341 139.542C160.213 139.67 160.064 139.777 159.893 139.862C159.808 140.075 159.787 140.353 159.829 140.694C159.872 141.035 159.787 141.185 159.573 141.142C159.36 141.057 159.296 140.865 159.381 140.566C159.467 140.225 159.467 139.926 159.381 139.67C159.296 139.585 159.211 139.478 159.125 139.35C159.04 139.222 158.955 139.137 158.869 139.094C158.741 138.966 158.677 138.902 158.677 138.902C158.635 139.073 158.571 139.243 158.485 139.414C158.443 139.585 158.4 139.713 158.357 139.798C158.357 139.585 158.293 139.329 158.165 139.03C158.08 139.115 158.037 139.179 158.037 139.222C158.037 139.222 157.995 139.265 157.909 139.35C157.824 139.478 157.739 139.627 157.653 139.798C157.568 139.969 157.483 140.118 157.397 140.246C157.355 140.289 157.269 140.374 157.141 140.502C157.056 140.587 156.971 140.609 156.885 140.566C156.8 140.523 156.736 140.481 156.693 140.438C156.651 140.353 156.587 140.289 156.501 140.246C156.288 140.033 156.139 139.713 156.053 139.286C155.968 138.987 155.883 138.71 155.797 138.454C155.755 138.155 155.691 137.857 155.605 137.558C155.435 137.473 155.285 137.366 155.157 137.238C155.072 137.067 154.965 136.918 154.837 136.79L154.517 136.278C154.176 135.723 153.835 135.169 153.493 134.614C153.152 134.017 152.811 133.441 152.469 132.886L151.893 131.926C151.765 131.755 151.637 131.585 151.509 131.414C151.424 131.243 151.317 131.073 151.189 130.902L150.997 130.518C150.955 130.433 150.912 130.347 150.869 130.262C150.827 130.177 150.763 130.091 150.677 130.006C150.677 129.963 150.656 129.942 150.613 129.942C150.613 129.942 150.613 129.921 150.613 129.878C150.613 129.878 150.571 129.835 150.485 129.75C150.485 129.537 150.443 129.387 150.357 129.302C150.315 129.174 150.293 129.281 150.293 129.622V145.878C150.293 146.091 150.293 146.326 150.293 146.582C150.336 146.795 150.336 147.009 150.293 147.222C150.293 147.137 150.272 147.179 150.229 147.35C150.187 147.478 150.187 147.521 150.229 147.478C150.187 147.649 150.08 147.819 149.909 147.99L149.525 148.374C149.483 148.545 149.44 148.715 149.397 148.886C149.397 149.099 149.355 149.313 149.269 149.526C149.184 150.081 149.077 150.614 148.949 151.126C148.864 151.681 148.736 152.235 148.565 152.79C148.523 152.918 148.459 153.131 148.373 153.43C148.288 153.729 148.203 153.942 148.117 154.07C147.861 154.326 147.669 154.241 147.541 153.814C147.413 153.43 147.328 153.217 147.285 153.174C147.2 152.833 147.115 152.47 147.029 152.086C146.944 151.745 146.859 151.382 146.773 150.998C146.731 150.785 146.709 150.571 146.709 150.358C146.709 150.145 146.667 149.953 146.581 149.782C146.496 149.867 146.389 149.953 146.261 150.038C146.133 150.166 146.005 150.273 145.877 150.358C145.792 151.169 145.728 152.001 145.685 152.854C145.685 153.75 145.643 154.625 145.557 155.478C145.557 155.521 145.515 155.499 145.429 155.414C145.344 155.329 145.301 155.265 145.301 155.222C144.917 154.582 144.789 153.985 144.917 153.43C145.045 152.918 145.173 152.385 145.301 151.83C145.472 151.275 145.365 150.699 144.981 150.102C144.939 150.017 144.896 149.931 144.853 149.846C144.811 149.761 144.747 149.675 144.661 149.59C144.576 149.59 144.533 149.59 144.533 149.59C144.448 150.273 144.405 150.934 144.405 151.574C144.405 152.257 144.363 152.918 144.277 153.558C144.277 153.558 144.192 153.558 144.021 153.558C143.851 153.558 143.765 153.537 143.765 153.494C143.723 152.854 143.68 152.193 143.637 151.51C143.637 150.87 143.595 150.209 143.509 149.526H143.189L143.125 149.462C143.04 149.462 142.997 149.462 142.997 149.462C142.955 150.017 142.933 150.55 142.933 151.062C142.933 151.617 142.891 152.171 142.805 152.726C142.805 152.769 142.72 152.705 142.549 152.534C142.379 152.449 142.293 152.385 142.293 152.342C142.208 151.873 142.165 151.425 142.165 150.998C142.165 150.571 142.144 150.145 142.101 149.718C142.059 149.761 142.016 149.825 141.973 149.91C141.931 149.995 141.931 149.995 141.973 149.91C141.931 150.038 141.845 150.166 141.717 150.294C141.675 150.337 141.611 150.379 141.525 150.422C141.44 150.507 141.355 150.593 141.269 150.678C141.141 150.934 141.056 151.19 141.013 151.446C140.971 151.745 140.885 152.043 140.757 152.342C140.715 152.385 140.672 152.449 140.629 152.534C140.629 152.619 140.587 152.705 140.501 152.79C140.416 152.875 140.331 152.875 140.245 152.79C140.075 152.619 139.968 152.321 139.925 151.894C139.883 151.467 139.819 151.19 139.733 151.062C139.52 150.849 139.328 150.571 139.157 150.23C139.029 149.931 138.859 149.569 138.645 149.142C138.603 149.227 138.581 149.291 138.581 149.334C138.581 149.419 138.56 149.505 138.517 149.59C138.475 149.633 138.368 149.611 138.197 149.526C138.069 149.483 138.005 149.462 138.005 149.462C137.835 149.377 137.707 149.291 137.621 149.206C137.664 149.291 137.685 149.441 137.685 149.654C137.685 149.867 137.6 150.209 137.429 150.678C137.387 150.849 137.344 150.998 137.301 151.126C137.259 151.254 137.216 151.403 137.173 151.574C137.131 152.043 137.109 152.769 137.109 153.75C137.109 154.774 137.109 155.841 137.109 156.95C137.109 158.102 137.109 159.169 137.109 160.15C137.109 161.174 137.067 161.921 136.981 162.39C136.939 162.817 136.896 162.881 136.853 162.582C136.853 162.283 136.853 161.771 136.853 161.046C136.853 160.321 136.853 159.574 136.853 158.806C136.853 158.038 136.853 157.441 136.853 157.014C136.811 155.734 136.789 154.667 136.789 153.814C136.789 153.003 136.768 152.193 136.725 151.382C136.683 150.614 136.576 149.675 136.405 148.566C136.235 148.481 136.085 148.395 135.957 148.31C135.488 147.969 135.253 147.499 135.253 146.902V105.558C135.253 105.089 135.424 104.683 135.765 104.342C136.107 104.001 136.576 103.83 137.173 103.83H145.813C146.283 103.83 146.731 103.83 147.157 103.83C147.584 103.787 147.989 103.873 148.373 104.086C148.843 104.299 149.205 104.598 149.461 104.982C149.76 105.366 150.016 105.771 150.229 106.198C150.315 106.283 150.379 106.39 150.421 106.518C150.507 106.603 150.571 106.71 150.613 106.838L150.933 107.35C151.317 107.819 151.68 108.374 152.021 109.014C152.405 109.611 152.768 110.251 153.109 110.934L155.349 114.646C155.861 115.414 156.352 116.203 156.821 117.014C157.291 117.825 157.76 118.614 158.229 119.382C158.315 119.553 158.421 119.745 158.549 119.958C158.677 120.129 158.784 120.321 158.869 120.534L159.125 120.918L159.381 120.47C159.467 120.257 159.573 120.065 159.701 119.894C159.829 119.723 159.936 119.553 160.021 119.382C160.405 118.785 160.789 118.166 161.173 117.526C161.557 116.886 161.941 116.246 162.325 115.606L162.773 114.838C162.773 114.795 162.773 114.774 162.773 114.774C162.816 114.774 162.837 114.753 162.837 114.71C162.837 114.71 162.88 114.667 162.965 114.582L165.141 110.934C165.184 110.934 165.205 110.934 165.205 110.934C165.205 110.891 165.205 110.87 165.205 110.87C165.547 110.23 165.888 109.611 166.229 109.014C166.613 108.417 166.955 107.883 167.253 107.414L167.637 106.774C167.851 106.433 168.043 106.113 168.213 105.814C168.427 105.473 168.661 105.153 168.917 104.854C168.917 104.811 168.939 104.79 168.981 104.79C169.195 104.491 169.493 104.257 169.877 104.086C170.261 103.873 170.667 103.787 171.093 103.83C171.563 103.83 172.011 103.83 172.437 103.83H181.269C181.525 103.83 181.717 103.873 181.845 103.958C181.973 104.001 182.123 104.065 182.293 104.15C182.677 104.406 182.912 104.833 182.997 105.43C183.04 105.729 183.04 106.049 182.997 106.39C182.997 106.731 182.997 107.051 182.997 107.35V144.086C182.997 144.598 183.019 145.131 183.061 145.686C183.104 146.198 183.083 146.71 182.997 147.222Z" fill="#0057FF"/>
</svg>
